<?xml version="1.0" encoding="iso-8859-1"?>
<!-- Generator: Adobe Illustrator 17.0.2, SVG Export Plug-In . SVG Version: 6.00 Build 0)  -->
<!DOCTYPE svg PUBLIC "-//W3C//DTD SVG 1.1//EN" "http://www.w3.org/Graphics/SVG/1.1/DTD/svg11.dtd">
<svg version="1.1" id="&#x5716;&#x5C64;_1" xmlns="http://www.w3.org/2000/svg" xmlns:xlink="http://www.w3.org/1999/xlink" x="0px"
	 y="0px" width="431.5px" height="150.2px" viewBox="0 0 431.5 150.2" style="enable-background:new 0 0 431.5 150.2;"
	 xml:space="preserve">
<g>
	<path style="fill:#0E83CD;" d="M99.2,47.4c4.4-2,9.6-3,15.7-3c5.7,0,10.7,1,15.1,3c4.4,2,8.1,4.7,11.1,8.2c3,3.5,5.3,7.7,6.8,12.5
		c1.1,3.6,1.8,7.3,2.1,11.3V0H87v55.2C91,52,94.8,49.4,99.2,47.4z"/>
	<rect style="fill:#0E83CD;" width="56" height="150"/>
	<path style="fill:#0E83CD;" d="M115.5,72.1c-2.3-2.8-5.8-4.3-10.3-4.3c-3.4,0-6.6,0.7-9.6,2.2c-3,1.5-5.6,3.4-8.6,5.9v74h32V84
		C119,78.9,117.9,74.9,115.5,72.1z"/>
</g>
<g>
	<path style="fill:#0E83CD;" d="M200.9,57.4c5.9,0,11.3,0.9,16.2,2.7c4.9,1.8,9.1,4.5,12.6,8c3.5,3.5,6.3,7.8,8.2,12.8
		c2,5.1,3,10.8,3,17.2c0,2-0.1,3.6-0.3,4.9c-0.2,1.3-0.5,2.3-0.9,3c-0.5,0.7-1.1,1.3-1.8,1.5c-0.8,0.3-1.8,0.4-3,0.4h-51.4
		c0.9,7.4,3.1,12.8,6.8,16.2c3.7,3.4,8.4,5,14.2,5c3.1,0,5.8-0.4,8-1.1c2.2-0.7,4.2-1.6,6-2.5c1.7-0.9,3.4-1.7,4.8-2.5
		c1.5-0.7,3-1.1,4.6-1.1c2.1,0,3.7,0.8,4.8,2.3l7.7,9.5c-2.7,3.2-5.7,5.7-8.9,7.7c-3.2,2-6.4,3.5-9.8,4.6c-3.4,1.1-6.7,1.9-10.1,2.3
		c-3.4,0.4-6.5,0.6-9.6,0.6c-6.2,0-12.1-1-17.6-3c-5.5-2-10.3-5.1-14.3-9.1c-4.1-4-7.3-9-9.7-14.9c-2.4-6-3.6-12.9-3.6-20.8
		c0-6,1-11.6,3-16.9c2-5.3,5-10,8.8-14c3.8-4,8.4-7.2,13.8-9.5C188,58.5,194.1,57.4,200.9,57.4z M201.4,75.8
		c-5.1,0-9.1,1.4-11.9,4.3c-2.9,2.9-4.8,7.1-5.7,12.5H217c0-2.1-0.3-4.2-0.8-6.2c-0.5-2-1.4-3.8-2.7-5.4c-1.2-1.6-2.8-2.8-4.9-3.8
		C206.7,76.2,204.3,75.8,201.4,75.8z"/>
	<path style="fill:#0E83CD;" d="M272.4,101.8l-28.7-43h25.6c1.9,0,3.3,0.2,4.2,0.7c0.9,0.5,1.7,1.3,2.4,2.4l15.9,26.4
		c0.3-1,0.8-2,1.3-3c0.5-1,1.1-2,1.7-3.1L306,62.3c0.7-1.3,1.6-2.2,2.5-2.8c0.9-0.5,2-0.8,3.4-0.8h24.4l-28.7,41.8l29.9,47.2h-25.6
		c-1.9,0-3.4-0.5-4.6-1.4c-1.1-0.9-2.1-2-2.8-3.3l-15.9-27.3c-0.3,1-0.6,1.9-1,2.7c-0.4,0.9-0.8,1.7-1.3,2.4l-13.1,22.2
		c-0.7,1.2-1.6,2.3-2.7,3.2c-1.1,0.9-2.6,1.4-4.3,1.4h-23.7L272.4,101.8z"/>
	<path style="fill:#0E83CD;" d="M384,57.4c6.8,0,12.9,1.1,18.5,3.2c5.6,2.1,10.3,5.2,14.3,9.1c4,4,7.1,8.7,9.3,14.4
		c2.2,5.6,3.3,12,3.3,19c0,7.1-1.1,13.5-3.3,19.2c-2.2,5.7-5.3,10.5-9.3,14.5c-4,4-8.7,7-14.3,9.2c-5.6,2.1-11.7,3.2-18.5,3.2
		c-6.8,0-13-1.1-18.6-3.2s-10.4-5.2-14.4-9.2c-4-4-7.2-8.8-9.4-14.5c-2.2-5.7-3.3-12.1-3.3-19.2c0-7,1.1-13.4,3.3-19
		c2.2-5.6,5.3-10.4,9.4-14.4c4-4,8.8-7,14.4-9.1C371,58.4,377.2,57.4,384,57.4z M384,129.4c6.1,0,10.6-2.2,13.5-6.5
		c2.9-4.3,4.3-10.9,4.3-19.7c0-8.8-1.4-15.4-4.3-19.7c-2.9-4.3-7.4-6.4-13.5-6.4c-6.3,0-10.9,2.1-13.8,6.4
		c-2.9,4.3-4.4,10.9-4.4,19.7c0,8.8,1.5,15.4,4.4,19.7C373.1,127.3,377.7,129.4,384,129.4z"/>
</g>
</svg>
